<?xml version="1.0" standalone="no"?>
<!DOCTYPE svg PUBLIC "-//W3C//DTD SVG 20010904//EN"
 "http://www.w3.org/TR/2001/REC-SVG-20010904/DTD/svg10.dtd">
<svg version="1.0" xmlns="http://www.w3.org/2000/svg"
 width="116.000000pt" height="161.000000pt" viewBox="0 0 116.000000 161.000000"
 preserveAspectRatio="xMidYMid meet">

<g transform="translate(0.000000,161.000000) scale(0.100000,-0.100000)"
fill="#000000" stroke="none">
<path d="M480 1376 l0 -234 -51 -11 c-125 -27 -280 -144 -346 -261 -55 -98
-74 -170 -74 -289 0 -173 55 -307 173 -417 116 -108 255 -160 413 -152 159 8
294 73 401 192 109 122 149 241 141 411 -7 155 -56 262 -172 378 -93 93 -251
157 -388 157 l-37 0 0 218 c0 226 -3 242 -42 242 -17 0 -18 -15 -18 -234z
m244 -429 c76 -35 126 -78 163 -139 94 -156 79 -372 -34 -499 -87 -95 -185
-136 -305 -126 -214 18 -357 195 -346 427 3 74 9 98 38 156 52 106 136 178
237 204 66 16 185 5 247 -23z"/>
<path d="M712 1600 c-18 -4 -53 -15 -78 -25 l-44 -17 0 -129 c0 -144 -4 -138
76 -114 27 8 66 15 86 15 30 0 37 -4 40 -22 4 -30 53 -41 158 -35 82 4 180 34
180 54 0 4 -25 19 -55 32 -81 35 -83 41 -37 103 22 29 45 63 51 76 12 23 12
23 -26 15 -21 -4 -72 -8 -113 -8 -70 0 -74 1 -80 25 -8 36 -78 49 -158 30z"/>
</g>
</svg>
